<svg width="28" height="28" viewBox="0 0 28 28" fill="none" xmlns="http://www.w3.org/2000/svg">
<path d="M24.5 7.1128H4.62024C4.09179 7.11169 3.58536 6.90099 3.21209 6.52693C2.83881 6.15287 2.62917 5.646 2.62917 5.11756C2.62917 4.58911 2.83881 4.08224 3.21209 3.70818C3.58536 3.33412 4.09179 3.12342 4.62024 3.12231H18.9697C19.2018 3.12231 19.4244 3.03013 19.5884 2.86603C19.7525 2.70194 19.8447 2.47938 19.8447 2.24731C19.8447 2.01525 19.7525 1.79269 19.5884 1.6286C19.4244 1.4645 19.2018 1.37231 18.9697 1.37231H4.62024C3.62726 1.37338 2.67527 1.76831 1.97313 2.47044C1.27099 3.17258 0.876063 4.12458 0.875 5.11755V21.9263C0.876355 23.1728 1.37212 24.3678 2.25351 25.2492C3.1349 26.1306 4.32994 26.6264 5.57642 26.6277H23.3798C24.3727 26.6267 25.3247 26.2317 26.0269 25.5296C26.729 24.8274 27.1239 23.8754 27.125 22.8824V9.7378C27.1242 9.04184 26.8474 8.3746 26.3553 7.88248C25.8632 7.39036 25.196 7.11356 24.5 7.1128ZM25.375 18.8646H22.0561C21.5922 18.864 21.1474 18.6795 20.8194 18.3514C20.4913 18.0233 20.3067 17.5786 20.3061 17.1146V16.625C20.3067 16.1611 20.4913 15.7163 20.8194 15.3882C21.1474 15.0602 21.5922 14.8756 22.0561 14.875H25.375V18.8646ZM25.375 13.125H22.0561C21.1282 13.1259 20.2385 13.495 19.5823 14.1511C18.9261 14.8073 18.5571 15.697 18.5561 16.625V17.1146C18.5571 18.0426 18.9261 18.9323 19.5823 19.5885C20.2385 20.2446 21.1282 20.6137 22.0561 20.6146H25.375V22.8824C25.3745 23.4115 25.1642 23.9187 24.7901 24.2928C24.416 24.6669 23.9088 24.8772 23.3798 24.8777H5.57642C4.79388 24.8769 4.04362 24.5657 3.49028 24.0124C2.93694 23.4591 2.62575 22.7088 2.625 21.9263V8.27528C3.22051 8.65723 3.91276 8.86107 4.62024 8.8628H24.5C24.732 8.86295 24.9545 8.95519 25.1185 9.11925C25.2826 9.28331 25.3748 9.50578 25.375 9.7378V13.125Z" fill="#B1FFB9"/>
<path d="M18.9697 4.24255H5.63879C5.40673 4.24255 5.18417 4.33474 5.02008 4.49884C4.85598 4.66293 4.76379 4.88549 4.76379 5.11755C4.76379 5.34962 4.85598 5.57218 5.02008 5.73627C5.18417 5.90037 5.40673 5.99255 5.63879 5.99255H18.9697C19.2018 5.99255 19.4243 5.90037 19.5884 5.73627C19.7525 5.57218 19.8447 5.34962 19.8447 5.11755C19.8447 4.88549 19.7525 4.66293 19.5884 4.49884C19.4243 4.33474 19.2018 4.24255 18.9697 4.24255Z" fill="#B1FFB9"/>
</svg>
